PathFileType	4	(X/Y/Z)	C:\Users\WrightLab\Desktop\Jo\P1_boxCal26.trc
DataRate	CameraRate	NumFrames	NumMarkers	Units	OrigDataRate	OrigDataStartFrame	OrigNumFrames
100.00	100.00	       15	19	mm	100.00	416	       664
Frame#	Time	Headset_Front			Headset_Back			Headset_Left			Headset_Right			Left_Shoulder			Right_Shoulder			Sternum			C7			Left Elbow			Right Elbow			Left Wrist			Right Wrist			Left ASIS			Right ASIS			S2			Left Knee			Right Knee			Left Ankle			Right Ankle			
		X1	Y1	Z1	X2	Y2	Z2	X3	Y3	Z3	X4	Y4	Z4	X5	Y5	Z5	X6	Y6	Z6	X7	Y7	Z7	X8	Y8	Z8	X9	Y9	Z9	X10	Y10	Z10	X11	Y11	Z11	X12	Y12	Z12	X13	Y13	Z13	X14	Y14	Z14	X15	Y15	Z15	X16	Y16	Z16	X17	Y17	Z17	X18	Y18	Z18	X19	Y19	Z19	

416	4.150	-528.56555	1320.35376	-69.47842	-661.67828	1512.47290	130.71497	-701.90857	1420.06213	-7.36197	-489.37906	1384.31812	54.77328	-832.77808	1280.23169	34.15573	-510.71680	1245.97107	236.12616	-610.28223	1138.77759	51.99317	-738.56226	1297.02991	227.55176	-957.91217	979.38660	12.56370	-511.43408	994.65955	373.34714	-955.52838	805.54419	-130.14949	-448.05344	753.95740	390.19626	-712.19855	862.15125	4.99246	-548.68866	858.47675	129.41882	-821.08783	925.19727	320.75519	-835.67065	441.10501	116.70786	-502.51407	468.97855	299.61429	-793.08319	77.13455	192.21616				
417	4.160	-534.00555	1322.66858	-73.69745	-664.39301	1513.10645	130.36821	-706.24805	1421.87683	-7.31451	-489.97186	1387.73132	57.87922	-836.36633	1280.72131	36.06927	-510.08322	1245.36719	231.40077	-614.20349	1140.85815	46.28066	-740.01959	1297.11035	226.12119	-964.39417	981.43677	19.55031	-509.68857	993.45813	367.96341	-969.89789	807.19537	-121.17444	-446.39801	752.96381	382.48831	-717.01080	864.37555	1.51320	-550.77643	859.37653	122.24428	-818.92853	924.53986	319.50122	-838.28790	440.87738	115.83164	-497.93884	468.24631	285.80780	-793.65161	77.05490	192.98656				
418	4.170	-539.59015	1325.34619	-77.11780	-666.07471	1513.83545	130.99364	-710.40717	1423.61597	-6.90870	-493.44623	1388.81116	53.22972	-840.46350	1282.25537	37.58899	-510.56821	1245.69312	227.10938	-616.94250	1141.57434	43.55641	-738.19305	1295.67029	227.42104	-970.65778	983.68158	26.60411	-508.36606	992.79993	362.52792	-983.85425	810.01239	-113.55840	-444.62430	752.15186	375.09171	-721.64960	866.04010	-1.59702	-552.54956	860.41925	114.68409	-816.57446	922.96973	317.89816	-840.76947	440.69775	116.28958	-494.45126	468.41818	270.92734	-794.19385	77.00565	193.74522				
419	4.180	-545.01471	1327.57104	-80.64885	-668.32611	1514.48792	130.48914	-714.82336	1424.98804	-6.28089	-496.93668	1390.32935	47.94693	-844.45465	1283.70398	40.45866	-509.28329	1244.96423	221.75229	-620.09222	1143.19409	39.15757	-738.03955	1295.26672	227.09317	-977.72198	985.61798	34.22638	-506.08148	991.76959	356.60062	-996.86194	812.93353	-107.70473	-442.31055	751.52063	367.78806	-726.08539	867.84747	-4.78957	-554.86383	860.93524	107.41420	-813.76685	922.18848	316.88736	-842.05347	439.96970	118.54545	-491.28015	467.85654	256.40833	-794.85822	76.99977	194.48381				
420	4.190	-550.48163	1330.50452	-84.40833	-670.08002	1514.60400	130.77257	-718.95856	1426.58850	-6.37760	-500.03043	1391.82483	43.65886	-847.61694	1284.70276	42.93694	-509.83377	1245.02893	217.10429	-624.44830	1144.90137	34.24242	-737.70526	1294.84595	226.51974	-983.54425	988.44861	40.39676	-504.62143	991.82886	350.75525	-1008.84686	815.93146	-101.39146	-440.57800	750.86694	359.43704	-730.35742	869.77435	-7.21874	-556.32074	861.79132	101.33649	-811.66315	921.20166	315.24368	-844.00946	440.40302	116.83021	-488.14911	467.94220	240.93694	-795.71844	76.87296	195.96959				
421	4.200	-555.53284	1332.85693	-87.61951	-671.97632	1515.12415	131.19603	-722.48041	1427.96057	-6.27597	-503.46509	1392.69385	40.78992	-851.08276	1285.97998	44.92701	-510.14154	1245.88745	212.73904	-626.30255	1145.68860	32.04441	-737.22217	1294.16223	226.14491	-989.44916	991.23694	46.36777	-502.47180	991.27777	344.44653	-1020.05109	819.05835	-96.25311	-438.45886	750.70203	351.39227	-734.37500	871.38782	-9.59297	-557.87311	862.83173	94.28188	-809.19012	920.29651	314.47223	-845.87561	439.86517	117.70999	-486.71140	467.44986	226.01485	-796.30505	76.77628	197.16705				
422	4.210	-560.42383	1334.98340	-91.34101	-673.51636	1515.84326	130.63440	-726.51300	1429.47900	-7.21316	-506.18604	1393.95947	37.28821	-854.57990	1286.92566	46.96464	-509.78610	1245.65540	207.22987	-630.22186	1146.94995	27.56154	-736.99390	1293.76343	225.85265	-994.52325	993.32080	52.57597	-500.67847	989.93866	337.22708	-1030.92419	822.79950	-91.14309	-436.11298	749.89478	343.23843	-737.92816	872.41431	-12.05712	-560.02246	863.77460	87.03883	-805.89404	919.07336	312.80472	-846.99744	440.47855	116.84856	-485.06934	467.95047	209.46767	-797.39178	77.26153	196.00995				
423	4.220	-565.14398	1337.24292	-94.31680	-675.08392	1513.18127	129.28600	-729.88287	1430.74219	-7.54513	-510.93405	1394.35400	34.48383	-857.33911	1288.11633	49.69801	-510.03177	1246.03906	202.16496	-632.55597	1148.16443	25.19373	-736.47662	1293.10681	225.42159	-999.00848	995.72620	57.01141	-498.53659	990.34833	331.22272	-1041.88062	826.14160	-86.01206	-434.19501	749.68597	334.70859	-741.77863	874.33862	-15.08897	-561.52728	865.47729	80.15144	-803.24084	918.29291	311.60278	-847.98730	440.06348	117.80085	-484.84064	467.80200	194.34784	-797.22693	78.33273	199.07524				
424	4.230	-569.56598	1338.96436	-98.42178	-676.46588	1513.55725	128.62379	-733.51227	1432.36438	-8.13453	-512.39954	1396.25879	29.39486	-860.34753	1289.24475	52.44743	-509.69611	1246.61792	196.77150	-635.42883	1149.75464	20.76024	-736.00909	1292.60779	224.40764	-1003.56897	998.02240	62.06242	-496.24857	990.10236	324.31860	-1051.08203	828.85248	-82.46406	-431.68274	749.44855	325.66177	-745.00690	875.83112	-17.82121	-563.18140	865.64276	74.61165	-799.64972	917.26581	309.66071	-848.91962	439.54303	118.69215	-485.52808	468.10913	179.03865	-797.56738	78.58398	199.42473				
425	4.240	-574.00519	1340.73413	-101.61308	-677.97266	1513.90686	127.73213	-736.21307	1433.49731	-8.75246	-516.76776	1396.84253	24.53997	-863.04376	1289.91956	54.45766	-509.60233	1246.76453	191.61261	-638.49890	1151.19849	17.47347	-735.51593	1292.50684	223.66046	-1007.35004	999.53442	66.55459	-493.00803	990.08765	317.29401	-1060.07971	832.96265	-79.16608	-429.19476	748.90271	316.56488	-747.94330	876.92572	-19.72170	-564.77136	866.70148	68.40458	-797.02277	916.86743	307.85867	-849.63605	439.90213	119.46970	-485.94418	468.76068	161.68236	-798.00562	79.01191	199.97539				
426	4.250	-578.37396	1343.00256	-105.16606	-679.29578	1514.30225	126.95435	-739.80493	1434.39709	-9.76691	-519.74011	1397.30286	21.75351	-865.45563	1290.49353	56.43209	-509.42249	1247.25793	185.84233	-641.17493	1152.70483	13.69149	-734.63922	1292.09656	222.69092	-1010.86346	1001.32983	70.12000	-490.40427	990.57294	310.80255	-1067.65027	835.92749	-76.62736	-427.35086	749.22626	308.31186	-751.63068	878.85339	-22.57008	-566.26935	867.71167	61.78994	-794.13940	916.17407	306.49109	-850.19214	439.88596	120.40791	-487.73993	469.16495	146.54138	-798.49310	79.11731	200.82622				
427	4.260	-582.29419	1344.51135	-108.58749	-681.57611	1514.80127	124.81591	-742.27771	1435.00977	-10.09046	-521.65521	1398.54932	17.96378	-867.73267	1291.22595	57.30523	-509.72952	1248.17224	180.96861	-644.21973	1153.80994	10.08705	-734.41235	1291.70532	220.84204	-1011.93347	1001.07886	72.57040	-488.48306	990.41882	304.13568	-1074.67346	837.94788	-72.99313	-424.03085	748.78967	298.35092	-754.48309	880.44360	-25.66847	-567.41064	869.66498	55.04540	-791.05798	915.61298	304.85739	-850.42078	440.13281	120.38101	-490.21909	469.80161	131.29680	-798.98364	79.30299	201.94055				
428	4.270	-586.29193	1346.05933	-112.31446	-682.10217	1514.44080	123.73875	-745.41418	1436.09338	-11.78116	-522.78253	1400.17676	14.67249	-869.42346	1291.37292	58.76899	-509.42017	1248.88525	175.39438				-733.98523	1291.25830	219.61369	-1014.30298	1001.99506	74.86751	-485.73080	990.94910	297.50784	-1079.89063	840.40009	-69.44957	-421.46463	749.26099	288.68884	-757.17865	881.38025	-28.13482	-569.26880	870.22870	49.34866	-787.70905	914.94751	303.36285	-850.81458	440.70776	120.47626	-492.90182	471.43896	115.42095	-799.53656	79.55743	202.91475				
429	4.280	-589.51721	1347.22400	-115.08396	-684.27557	1514.52856	121.94143	-747.66699	1436.81506	-13.00705	-525.57532	1401.10767	11.36352	-871.74042	1291.89246	59.56491	-509.65173	1249.20752	169.99501	-649.71265	1156.50452	1.63290	-733.15808	1291.12671	218.07004	-1016.04272	1002.58417	76.48994	-483.08383	990.73413	290.38193	-1085.25220	842.02820	-67.30293	-418.88519	749.51263	279.00421	-760.53351	882.36334	-30.32212	-570.23389	871.65021	42.22709	-783.18298	914.11884	300.35535	-852.10858	441.57672	119.59956	-495.95764	472.35696	100.86040	-800.07941	79.66908	203.88905				
430	4.290	-592.75641	1348.35168	-118.59936	-686.58185	1515.23242	119.60889	-750.44019	1437.42944	-14.67333	-528.71783	1401.42078	7.42166	-873.41937	1291.99854	59.82998	-509.65948	1249.83740	164.21497	-652.25769	1157.82861	-2.72922	-732.79144	1290.25867	212.81839	-1017.56189	1002.20825	76.99285	-480.28134	990.91486	283.24207	-1090.17908	843.80170	-65.97717	-415.94238	749.94061	269.43796	-762.47607	883.23956	-32.25701	-570.48822	873.68665	34.58894	-780.74176	913.83893	299.47958	-852.43915	441.44266	120.59587	-499.14664	474.23520	85.60711	-800.53949	79.85537	204.81650				
